<svg id="Calque_1" data-name="Calque 1" xmlns="http://www.w3.org/2000/svg" viewBox="0 0 287.19 131.43"><defs><style>.cls-1{fill:#fff;}</style></defs><title>LOGO-B</title><path class="cls-1" d="M231,454.15a1.58,1.58,0,0,0,.74.16,1.84,1.84,0,0,0,1.1-.37,2.32,2.32,0,0,0,.79-.94l14.09-37.16a10.52,10.52,0,0,1,1.44-2.49,14.26,14.26,0,0,1,1.55-1.71,10,10,0,0,1,1.84-1.32,2.08,2.08,0,0,0,1-2.73,2.27,2.27,0,0,0-1.22-1,1.87,1.87,0,0,0-1.52.07l-.84.51a13.66,13.66,0,0,0-1.79,1.36,19.59,19.59,0,0,0-2.2,2.34,13.69,13.69,0,0,0-2,3.47l0,.05-14.08,37.15a2.19,2.19,0,0,0,.07,1.59A1.82,1.82,0,0,0,231,454.15Z" transform="translate(-154.23 -355.57)"/><path class="cls-1" d="M441.23,449.74a2,2,0,0,0-1.13-1.1,2.09,2.09,0,0,0-1.57.08,1.94,1.94,0,0,0-1.1,1.13,6.79,6.79,0,0,1-1.11,1.83,9.36,9.36,0,0,1-1.63,1.58,7.45,7.45,0,0,1-1.92,1.08,5.52,5.52,0,0,1-2,.39h-1.68a14.28,14.28,0,0,0,.95-1.83q1.94-5.2-2-10.25a10.66,10.66,0,0,0-.89-1.08l-.9-1a23.79,23.79,0,0,1-2-2.48,2.59,2.59,0,0,1,.24-3.31,3.37,3.37,0,0,1,1-.63,4,4,0,0,1,1-.26l.61-.05a6.19,6.19,0,0,1,1.08.1c.33.07.62.15.86.21a7.78,7.78,0,0,1,.74.32,2,2,0,0,0,1.55.31,1.88,1.88,0,0,0,1.28-.89,2,2,0,0,0,.32-1.55,1.92,1.92,0,0,0-.89-1.29l-.48-.26a6.92,6.92,0,0,0-1-.45A12.47,12.47,0,0,0,429,430a9.77,9.77,0,0,0-1.94-.18,8.62,8.62,0,0,0-2.16.29,7.09,7.09,0,0,0-2.07.92,6.74,6.74,0,0,0-1.71,1.58,6.41,6.41,0,0,0-1.1,2.2l-.06.05-2.68,7.31a20.64,20.64,0,0,1-3.55,5.65,23.58,23.58,0,0,1-4.43,3.94,18.44,18.44,0,0,1-4.6,2.29,13.42,13.42,0,0,1-4,.73q-3.31,0-4.73-2.1a5.51,5.51,0,0,1-1-2.87,7.81,7.81,0,0,1,.53-3.33l.47-1.16h5.83a8.27,8.27,0,0,0,4.84-1.49,8.45,8.45,0,0,0,3.1-4,8,8,0,0,0,.58-3.66,6.69,6.69,0,0,0-3.82-5.54,8.06,8.06,0,0,0-3.59-.79,8,8,0,0,0-3.08.55,6.71,6.71,0,0,0-2.2,1.5A9.54,9.54,0,0,0,396,434a16.83,16.83,0,0,0-1.13,2.52L391.7,445a11.54,11.54,0,0,0-.82,5.18,6.66,6.66,0,0,1-1,1.6,9.16,9.16,0,0,1-1.63,1.55,8.17,8.17,0,0,1-1.92,1,5.52,5.52,0,0,1-2,.39c-1,0-1.73-.33-2-1a3,3,0,0,1,.13-2.43L398.32,410c1.13-2.88,2.32-4.31,3.58-4.31a2,2,0,0,0,1.44-.58,1.92,1.92,0,0,0,.61-1.47,2.07,2.07,0,0,0-2.05-2.05,5.47,5.47,0,0,0-3.07.84,8.36,8.36,0,0,0-2.16,2,11.68,11.68,0,0,0-1.4,2.31c-.34.79-.59,1.39-.73,1.82l-15.87,41.36a6.52,6.52,0,0,1-1.1,1.89,9.16,9.16,0,0,1-1.63,1.55,8.17,8.17,0,0,1-1.92,1,5.56,5.56,0,0,1-2,.39,2,2,0,0,1-2-1,3.08,3.08,0,0,1,.14-2.43L386,410c1.11-2.88,2.3-4.31,3.57-4.31a2,2,0,0,0,1.44-.58,2,2,0,0,0,.61-1.47,2,2,0,0,0-.61-1.45,2,2,0,0,0-1.44-.6,5.53,5.53,0,0,0-3.08.84,8.65,8.65,0,0,0-2.15,2,11.16,11.16,0,0,0-1.39,2.31c-.35.79-.6,1.39-.74,1.82l-15.7,40.91a1.57,1.57,0,0,0-.22.45,6.79,6.79,0,0,1-1.11,1.89,8.83,8.83,0,0,1-1.63,1.55,7.91,7.91,0,0,1-1.91,1,5.56,5.56,0,0,1-2,.39h-4.74a10.61,10.61,0,0,1-3.46-.5,6.6,6.6,0,0,1-2.37-1.31,3.7,3.7,0,0,1-1.16-1.84,3.33,3.33,0,0,1,.16-2.08l1.37-3.73h4.67q7.11,0,9.68-5.3a9.29,9.29,0,0,0,1-3.76A6,6,0,0,0,364,433a5.85,5.85,0,0,0-2.44-2.27,8.67,8.67,0,0,0-4-.83,10.49,10.49,0,0,0-2.46.31,7.87,7.87,0,0,0-2.61,1.21,12.14,12.14,0,0,0-2.52,2.47,15.51,15.51,0,0,0-2.18,4.1l-3.58,9.56a8.28,8.28,0,0,0-.51,2.19l-.06.13a6.59,6.59,0,0,1-1.34,2.12,8.18,8.18,0,0,1-1.92,1.53,9.45,9.45,0,0,1-2.23.92,8.93,8.93,0,0,1-2.29.31q-2.16,0-2.79-1a2.47,2.47,0,0,1-.05-2.37h.05v-.06L339.73,434h5.36a2,2,0,0,0,1.44-.6,2.08,2.08,0,0,0,0-2.92,2,2,0,0,0-1.44-.57H341.3q1.47-3.84,2.21-5.79l1.08-2.84c.22-.59.37-1,.45-1.18s.15-.44.26-.76c.28-.77.6-1.61,1-2.52a18.9,18.9,0,0,1,1.26-2.55,8.18,8.18,0,0,1,1.61-2,3,3,0,0,1,2-.79,2.05,2.05,0,1,0,0-4.1,6.48,6.48,0,0,0-3.8,1.11,10.5,10.5,0,0,0-2.74,2.7,17.68,17.68,0,0,0-1.89,3.44c-.51,1.23-.94,2.33-1.29,3.31a5,5,0,0,1-.26.69c-.07.14-.23.54-.48,1.21s-.65,1.75-1.23,3.26-1.44,3.76-2.6,6.78h-2.31a2.07,2.07,0,0,0-1.48,3.49,2,2,0,0,0,1.48.6h.73l-5.76,15.19a2,2,0,0,0-.44.69,6.75,6.75,0,0,1-1.1,1.89,9.51,9.51,0,0,1-1.63,1.55,8.17,8.17,0,0,1-1.92,1,5.52,5.52,0,0,1-2,.39c-1.05,0-1.72-.33-2-1a3.29,3.29,0,0,1,.11-2.43l4.68-12.13a6.16,6.16,0,0,0,.33-3.31,7.5,7.5,0,0,0-1.23-3.05,7.13,7.13,0,0,0-2.47-2.21,6.76,6.76,0,0,0-3.31-.84,10.8,10.8,0,0,0-7.36,2.79.71.71,0,0,1-.13-.19l-.08-.18a2,2,0,0,0-1.34-.79,2,2,0,0,0-1.49.37,1.79,1.79,0,0,0-.87,1.28,2.1,2.1,0,0,0,.34,1.55,3.6,3.6,0,0,1,.42.95,4.13,4.13,0,0,1,.11,1,4.73,4.73,0,0,1-.21,1.26l-4.42,12a6.33,6.33,0,0,1-1.11,1.89,8.35,8.35,0,0,1-1.65,1.55,8.71,8.71,0,0,1-1.94,1,5.57,5.57,0,0,1-2,.39h-4.67a10.59,10.59,0,0,1-3.47-.5,6.6,6.6,0,0,1-2.37-1.31,3.68,3.68,0,0,1-1.15-1.84,3.33,3.33,0,0,1,.15-2.08l1.37-3.73h4.68q7.1,0,9.67-5.3a9.31,9.31,0,0,0,1-3.76,6,6,0,0,0-.77-3.23,5.79,5.79,0,0,0-2.44-2.27,8.66,8.66,0,0,0-4-.83,10.71,10.71,0,0,0-2.48.31,7.78,7.78,0,0,0-2.59,1.21,11.93,11.93,0,0,0-2.53,2.47,15.51,15.51,0,0,0-2.18,4.1l-3.57,9.56a7.31,7.31,0,0,0,1.29,7.65,10.32,10.32,0,0,0,3.75,2.63,14.15,14.15,0,0,0,5.63,1H297a9.23,9.23,0,0,0,3.18-.58,12.77,12.77,0,0,0,3-1.57,12.14,12.14,0,0,0,2.52-2.39,12.29,12.29,0,0,0,1.74-3c.24-.69.58-1.64,1-2.83s.9-2.44,1.37-3.73.93-2.54,1.36-3.74.78-2.13,1-2.83a6.31,6.31,0,0,1,2.47-3.16,6.93,6.93,0,0,1,3.94-1.15,2.69,2.69,0,0,1,1.36.36,3.66,3.66,0,0,1,1.06.93,2.92,2.92,0,0,1,.55,1.23,2.25,2.25,0,0,1-.13,1.31l-4.68,12.15a7.78,7.78,0,0,0-.53,3.47,6.18,6.18,0,0,0,.95,2.83,5.69,5.69,0,0,0,2.15,1.94,6.5,6.5,0,0,0,3.16.74,9.23,9.23,0,0,0,3.18-.58,13,13,0,0,0,3-1.57c.33-.24.63-.51.94-.77A5.9,5.9,0,0,0,332,458a8.3,8.3,0,0,0,3.94.84,12.89,12.89,0,0,0,3.36-.47,13.76,13.76,0,0,0,3.34-1.42,12.33,12.33,0,0,0,2.66-2.13c.1.12.18.25.28.37a10.36,10.36,0,0,0,3.76,2.63,14.14,14.14,0,0,0,5.62,1h4.74a9.18,9.18,0,0,0,3.17-.58,12.83,12.83,0,0,0,3-1.57c.28-.2.53-.43.79-.65l.05.09a5.53,5.53,0,0,0,2.15,2,6.56,6.56,0,0,0,3.21.74,9.23,9.23,0,0,0,3.18-.58,12.77,12.77,0,0,0,3-1.57c.27-.19.5-.41.75-.62a.21.21,0,0,0,0,.06,5.6,5.6,0,0,0,2.15,2,6.59,6.59,0,0,0,3.21.74,9.23,9.23,0,0,0,3.18-.58,12.77,12.77,0,0,0,3-1.57,12.33,12.33,0,0,0,1.94-1.75h0a8.07,8.07,0,0,0,3.34,2.89,10.78,10.78,0,0,0,4.76,1,17.27,17.27,0,0,0,4.75-.81,23.3,23.3,0,0,0,5.63-2.6,27.6,27.6,0,0,0,5.51-4.68,25,25,0,0,0,4.44-7s.06,0,.06-.05v-.06l.73-1.94,1.53,1.68.81.92c.26.3.5.59.71.87q2.58,3.21,1.42,6.25-1.22,3.31-5.2,3.31a4.82,4.82,0,0,1-2.6-.58c-.62-.38-1-.59-1-.62a1.89,1.89,0,0,0-1.47-.53,2.1,2.1,0,0,0-1.42.63,1.91,1.91,0,0,0-.52,1.47,2.13,2.13,0,0,0,.62,1.42c.07.07.27.23.58.47a8,8,0,0,0,1.32.79,10.88,10.88,0,0,0,2,.73,9.08,9.08,0,0,0,2.55.32h9.77a9.23,9.23,0,0,0,3.18-.58,12.24,12.24,0,0,0,3-1.6,13.26,13.26,0,0,0,2.52-2.39,11.42,11.42,0,0,0,1.73-2.95A2,2,0,0,0,441.23,449.74ZM398.74,438a9.22,9.22,0,0,1,1.76-3.21,3.31,3.31,0,0,1,2.4-.84,3.14,3.14,0,0,1,2.83,1.26,3.19,3.19,0,0,1,.16,3.15,4.27,4.27,0,0,1-1.6,2.06,4.33,4.33,0,0,1-2.5.78h-4.26Zm-47.08,1.42a11.06,11.06,0,0,1,1.68-3.13,7.51,7.51,0,0,1,1.71-1.6,3.7,3.7,0,0,1,1.49-.61c.46-.05.81-.08,1-.08,1.58,0,2.55.37,2.92,1.11s.24,1.77-.39,3.1a4.62,4.62,0,0,1-2.16,2.28,8.54,8.54,0,0,1-3.84.71H351Zm-62.7,0a11.06,11.06,0,0,1,1.68-3.13,7.51,7.51,0,0,1,1.71-1.6,3.68,3.68,0,0,1,1.5-.61,10.45,10.45,0,0,1,1-.08q2.36,0,2.91,1.11c.37.74.24,1.77-.39,3.1a4.62,4.62,0,0,1-2.16,2.28,8.52,8.52,0,0,1-3.83.71h-3.15Z" transform="translate(-154.23 -355.57)"/><path class="cls-1" d="M439.7,468.46c-2.87,0-4.2,3.67-5.27,6.62-1,2.76-1.68,4.43-2.75,4.43s-1.76-1.67-2.76-4.43c-1.08-2.95-2.41-6.62-5.27-6.62s-4.21,3.67-5.28,6.62c-1,2.76-1.68,4.43-2.75,4.43s-1.76-1.67-2.76-4.43c-1.07-2.95-2.4-6.62-5.27-6.62s-4.2,3.67-5.27,6.62c-1,2.76-1.69,4.43-2.76,4.43s-1.75-1.67-2.75-4.43c-1.07-2.95-2.41-6.62-5.28-6.62s-4.2,3.67-5.27,6.62c-1,2.76-1.68,4.43-2.75,4.43s-1.76-1.67-2.76-4.43c-1.07-2.95-2.4-6.62-5.27-6.62s-4.2,3.67-5.27,6.62c-1,2.76-1.69,4.43-2.76,4.43s-1.75-1.67-2.75-4.43c-1.07-2.95-2.41-6.62-5.28-6.62s-4.2,3.67-5.27,6.62c-1,2.76-1.69,4.43-2.76,4.43s-1.75-1.67-2.75-4.43c-1.07-2.95-2.4-6.62-5.27-6.62s-4.21,3.67-5.28,6.62c-1,2.76-1.68,4.43-2.75,4.43s-1.75-1.67-2.76-4.43c-1.07-2.95-2.4-6.62-5.27-6.62s-4.2,3.67-5.27,6.62c-1,2.76-1.69,4.43-2.76,4.43s-1.75-1.67-2.75-4.43-2.14-5.88-4.46-6.5a1.6,1.6,0,0,0-.72-.11h-.09a1,1,0,0,0-.44.11h-.05a2.19,2.19,0,0,0-1.21,1,11.38,11.38,0,0,1-.71,1.18,18.21,18.21,0,0,1-2.05,2.5,29.91,29.91,0,0,1-3.62,3.15,27.69,27.69,0,0,1-5.52,3.12A39,39,0,0,1,290,482a47.54,47.54,0,0,1-10.07.95,36.13,36.13,0,0,1-11.19-1.68,51.64,51.64,0,0,1-9.8-4.31,70.4,70.4,0,0,1-8.7-5.86c-2.73-2.15-5.36-4.27-7.89-6.33a60.37,60.37,0,0,0,9.12-3.68,64.85,64.85,0,0,0,8.33-5,57.59,57.59,0,0,0,7.31-6.13,51.43,51.43,0,0,0,6-7.17,54.64,54.64,0,0,0,3.86-6.62,52.85,52.85,0,0,0,3.08-7.57,47.19,47.19,0,0,0,1.81-8,31.3,31.3,0,0,0,.13-7.78,21.77,21.77,0,0,0-2-7,16.75,16.75,0,0,0-4.58-5.73,22,22,0,0,0-7.56-3.86,37.44,37.44,0,0,0-11-1.42,51.66,51.66,0,0,0-14.69,2.1,52.53,52.53,0,0,0-13.11,5.86,46.78,46.78,0,0,0-10.54,9,38.51,38.51,0,0,0-7,11.48,24,24,0,0,0-1.58,5.89,20.38,20.38,0,0,0-.05,4.86,16.65,16.65,0,0,0,2.21,6.67,10.38,10.38,0,0,0,1.26,1.76c.38.43.59.65.63.69a2,2,0,0,0,1.47.55,2.07,2.07,0,0,0,1.42-.6,2.18,2.18,0,0,0,0-2.95,10.62,10.62,0,0,1-1.29-1.76,13.56,13.56,0,0,1-.95-2.13,12.89,12.89,0,0,1-.63-3,17.32,17.32,0,0,1,.08-3.84,19.36,19.36,0,0,1,1.26-4.65,35,35,0,0,1,6.36-10.48,42.5,42.5,0,0,1,9.65-8.17,47.47,47.47,0,0,1,12-5.31,48.29,48.29,0,0,1,13.48-1.89q7.51,0,12.06,2.15a15.53,15.53,0,0,1,6.75,5.68,16.13,16.13,0,0,1,2.42,8,33,33,0,0,1-.87,9.09,46.42,46.42,0,0,1-3.1,9,51.24,51.24,0,0,1-4.33,7.67,45.17,45.17,0,0,1-5.47,6.41,56.6,56.6,0,0,1-7.2,6,61,61,0,0,1-8.72,5.1,57,57,0,0,1-10,3.71c-1.78-1.41-3.55-2.68-5.3-3.84a39.41,39.41,0,0,0-5.31-2.94,20.19,20.19,0,0,0-5.08-1.5,15.88,15.88,0,0,0-4.33-.08,11.77,11.77,0,0,0-3.44,1,9,9,0,0,0-2.45,1.66,6.17,6.17,0,0,0-1.89,3.1,5.5,5.5,0,0,0,.26,3.42,8.66,8.66,0,0,0,1,1.68,6.94,6.94,0,0,0,2.13,1.76,14.32,14.32,0,0,0,3.68,1.36,24,24,0,0,0,5.62.56,61.87,61.87,0,0,0,14.19-1.69l5.73,4.68q2.94,2.42,6.09,4.73c2.11,1.54,4.29,3,6.57,4.42a53,53,0,0,0,7.2,3.68,46.69,46.69,0,0,0,8,2.49,40.74,40.74,0,0,0,8.86.92,52,52,0,0,0,11.27-1.1,44,44,0,0,0,8.59-2.79,30,30,0,0,0,6.21-3.68,37.24,37.24,0,0,0,4.13-3.73,20.4,20.4,0,0,0,2.1-2.62A14.58,14.58,0,0,1,314,477c1.07,3,2.4,6.62,5.27,6.62s4.2-3.67,5.27-6.62c1-2.76,1.69-4.43,2.76-4.43s1.76,1.67,2.76,4.43c1.07,3,2.4,6.62,5.27,6.62s4.2-3.67,5.27-6.62c1-2.76,1.69-4.43,2.76-4.43s1.75,1.67,2.75,4.43c1.07,3,2.41,6.62,5.27,6.62s4.21-3.67,5.28-6.62c1-2.76,1.69-4.43,2.75-4.43s1.76,1.67,2.76,4.43c1.07,3,2.4,6.62,5.27,6.62s4.2-3.67,5.27-6.62c1-2.76,1.69-4.43,2.76-4.43s1.76,1.67,2.76,4.43c1.07,3,2.4,6.62,5.27,6.62s4.2-3.67,5.27-6.62c1-2.76,1.68-4.43,2.75-4.43s1.76,1.67,2.76,4.43c1.07,3,2.4,6.62,5.27,6.62s4.2-3.67,5.27-6.62c1-2.76,1.69-4.43,2.76-4.43s1.76,1.67,2.76,4.43c1.07,3,2.4,6.62,5.27,6.62s4.2-3.67,5.27-6.62c1-2.76,1.69-4.43,2.76-4.43s1.75,1.67,2.75,4.43c1.07,3,2.41,6.62,5.28,6.62s4.2-3.67,5.27-6.62c1-2.76,1.68-4.43,2.75-4.43.79,0,1.42-.91,1.42-2S440.49,468.46,439.7,468.46Zm-216.38-4.79a16,16,0,0,1-6.23-.92,4.71,4.71,0,0,1-2.44-1.87,1.35,1.35,0,0,1,0-1.23,3.06,3.06,0,0,1,.63-.82,5.09,5.09,0,0,1,2.26-1.31,9.13,9.13,0,0,1,2.79-.32,15.19,15.19,0,0,1,3,.42,17,17,0,0,1,2.82.95,33.34,33.34,0,0,1,3.47,1.84c1.15.7,2.34,1.49,3.57,2.36A55,55,0,0,1,223.32,463.67Z" transform="translate(-154.23 -355.57)"/><path class="cls-1" d="M201.91,387.85l-3.32.44-.53-5.12h-7.93v10.64h7.36l1-3.64,3.24.22-.35,5.17.35,5.65-3.24.17-1-4h-7.36v8.19l4.56.61.17,3.24H178.92l.22-3.24,4-.61V383.39l-4.21-.62.27-3.24h23.29Z" transform="translate(-154.23 -355.57)"/><path class="cls-1" d="M219.7,409.83l.18-2.62a7.13,7.13,0,0,1-5.78,2.62c-3.9,0-6.52-1.79-6.52-7.22V396l-2.72-3.68v-1.27l9.19-1.27-.26,4.12v8.19c0,2.27,1.18,3.15,2.89,3.15a4.48,4.48,0,0,0,3.11-1.27V393.85l-3.24-.26.09-3.29,9.37-.39v15.76l3.33.62.08,3.1Z" transform="translate(-154.23 -355.57)"/><path class="cls-1" d="M237.67,409.83c-2.19,0-5-.26-6.53-1.09l.66-4.12a19.91,19.91,0,0,0,7,1.49h.57a2,2,0,0,0,.57-1.27c0-3.24-8.67-3-8.67-9.15,0-3.68,4.38-6.09,8.76-6.09a23.12,23.12,0,0,1,5.34.53l-.7,4.42a28.12,28.12,0,0,0-6.35-1.27h-.57a2.2,2.2,0,0,0-.39,1.14c0,2.89,8.8,2.89,8.8,8.93C246.12,407,242.79,409.83,237.67,409.83Z" transform="translate(-154.23 -355.57)"/><path class="cls-1" d="M248.41,409.39l.08-3.1,3.51-.62V396l-2.72-3.68v-1.27l9.33-1.27-.4,4.34v11.51l3.37.62.09,3.1Zm6.69-23.73a2.75,2.75,0,0,1-2.71-2.8,2.67,2.67,0,0,1,2.71-2.71,2.7,2.7,0,0,1,2.76,2.71A2.78,2.78,0,0,1,255.1,385.66Z" transform="translate(-154.23 -355.57)"/><path class="cls-1" d="M274,409.83c-2.85,0-6.53-.74-8.5-2V382.07l-3.5-.26.09-3.28,10-.4-.39,4V392a6.82,6.82,0,0,1,5.47-2.37c4.56,0,7.93,3.29,7.93,9.29C285.15,406,280,409.83,274,409.83Zm.39-15.72a4.7,4.7,0,0,0-2.67.75v10.33a4.76,4.76,0,0,0,2.36.57c2.11,0,4.21-1.49,4.21-6.17C278.32,395.65,276.52,394.11,274.42,394.11Z" transform="translate(-154.23 -355.57)"/><path class="cls-1" d="M287.18,409.39l.08-3.1,3.51-.62v-23.6l-3.51-.26.09-3.28,10-.4-.4,4.12v23.42l3.37.62.09,3.1Z" transform="translate(-154.23 -355.57)"/><path class="cls-1" d="M312.27,409.83c-5.08,0-10.16-3.28-10.16-9.89,0-6.88,5.13-10.34,9.81-10.34,5.61,0,8.36,3.42,8.36,8a11.3,11.3,0,0,1-.17,2.06h-11.3a1.74,1.74,0,0,0,0,.35c0,3.85,2.28,5.56,5,5.56a9.15,9.15,0,0,0,5.43-1.93l1.44,2.94A11.11,11.11,0,0,1,312.27,409.83Zm2.1-14.05c0-2-.92-3.24-2.58-3.24s-2.89,1.62-2.89,4.29l5.47-.44Z" transform="translate(-154.23 -355.57)"/><path class="cls-1" d="M330,409.83c-2.19,0-5-.26-6.52-1.09l.65-4.12a19.91,19.91,0,0,0,7,1.49h.56a2,2,0,0,0,.57-1.27c0-3.24-8.67-3-8.67-9.15,0-3.68,4.38-6.09,8.76-6.09a23.12,23.12,0,0,1,5.34.53l-.7,4.42a28.12,28.12,0,0,0-6.35-1.27H330a2.13,2.13,0,0,0-.4,1.14c0,2.89,8.8,2.89,8.8,8.93C338.42,407,335.09,409.83,330,409.83Z" transform="translate(-154.23 -355.57)"/><path class="cls-1" d="M199.6,457.89,194.84,454a12.62,12.62,0,0,1-8.56,3.35c-6.28,0-9.74-2.57-9.74-7.48,0-3.38,2.53-6.51,6.65-7.32a10,10,0,0,1-1-4.39c0-4.58,3.79-7,7.51-7a12.89,12.89,0,0,1,5.58,1.15l-.37,5.61-2.79.45-.48-4.2a3.08,3.08,0,0,0-1.68-.49c-1.49,0-2.6,1.2-2.6,3,0,2.12,1,4.42,5.09,8.92l2.61,2.83a18.55,18.55,0,0,0,1.67-7.88l5.88.18v3l-2.35.26a15.13,15.13,0,0,1-2.9,7l5.43,5.95Zm-11-9.08a29.46,29.46,0,0,1-3.72-3.6,4.47,4.47,0,0,0-2.38,4.12,4.57,4.57,0,0,0,4.76,4.91,7.52,7.52,0,0,0,5.25-2.19Z" transform="translate(-154.23 -355.57)"/><path class="cls-1" d="M164.82,366.33l-1.08,1.5-2.87-2a6.59,6.59,0,0,0-2.44,1.76c-1.75,2-1.78,4.9,2.06,8.27,3.16,2.76,6.19,2.38,8,.29a5.92,5.92,0,0,0,1.3-2.42l-2.24-3,1.37-1.3,3.91,3.41a15,15,0,0,1-2.91,4.94c-3.27,3.74-8.29,5-12.41,1.41-4.63-4.06-3.9-9.29-.83-12.8a16.67,16.67,0,0,1,4.6-3.75Z" transform="translate(-154.23 -355.57)"/><path class="cls-1" d="M175.09,358.6a1.55,1.55,0,0,1-2-1,1.51,1.51,0,0,1,.91-2,1.54,1.54,0,0,1,2,.9A1.57,1.57,0,0,1,175.09,358.6Zm1.08,13.93-.56-1.67,1.74-1-1.88-5.12-2.16-1.43-.25-.67,4.71-2.5.64,2.38,2.25,6.12,1.91-.33.66,1.63Z" transform="translate(-154.23 -355.57)"/><path class="cls-1" d="M190,370a5.45,5.45,0,0,1-5.51-5.84,5.55,5.55,0,0,1,5.8-5.61c3.17.14,4.65,2.14,4.54,4.71a6.7,6.7,0,0,1-.15,1.16l-6.39-.27a.78.78,0,0,0,0,.19c-.1,2.18,1.15,3.21,2.68,3.27a5.17,5.17,0,0,0,3.12-.95l.75,1.69A6.28,6.28,0,0,1,190,370Zm1.53-7.9c.05-1.11-.44-1.85-1.38-1.89s-1.68.84-1.74,2.35l3.11-.11Z" transform="translate(-154.23 -355.57)"/><polygon class="cls-1" points="214.65 30.14 222.76 32.51 209.09 49.16 234.27 29.98 226.31 27.66 239.8 11.03 214.65 30.14"/></svg>